<?xml version="1.0" encoding="UTF-8"?><svg id="Layer_1" xmlns="http://www.w3.org/2000/svg" viewBox="0 0 239.64 83.71"><defs><style>.cls-1{fill:#ea494c;}.cls-2{fill:#4faddc;}.cls-3{fill:#fefdfd;}.cls-4{fill:#f2b944;}.cls-5{fill:#191919;}.cls-6{fill:#1a1a1a;}</style></defs><path class="cls-5" d="M235.29,65.82c-7.65,11.65-24.19,13.99-33.54,4.18-.67,1.72-.13,3.12-.47,4.72l-12.08.05-.03-65.69,12.18-.03.2,23.68c9.48-10.12,25.73-7.57,33.38,3.43,6.09,8.75,6.34,20.56.36,29.66ZM214.77,64.42c7.57-.25,12.58-6.07,12.56-13.26-.03-7.57-5.64-13.18-13.25-13.06s-12.69,5.68-12.73,13.07,5.49,13.52,13.43,13.25Z"/><path class="cls-2" d="M81.01,59.54l-39.29-17.71L2.7,59.53c-3.51-4.25-3.5-10.16-.52-14.7,1.74-2.46,3.89-4.44,6.72-5.73l32.83-14.96,32.44,14.7c2.82,1.28,5.06,3.1,6.87,5.48,3.23,4.49,3.54,10.35-.04,15.22Z"/><path class="cls-4" d="M41.82,17.68L2.58,35.39c-3.32-4.49-3.38-10.1-.48-14.59,1.87-2.66,4.23-4.71,7.26-6.08L41.76,0l32.57,14.77c2.91,1.32,5.16,3.31,7.01,5.83,3.06,4.57,3.03,10.45-.42,14.8l-39.1-17.72Z"/><path class="cls-1" d="M41.92,65.98L2.65,83.67c-3.61-4.52-3.47-10.81.05-15.4,1.8-2.3,3.97-4.02,6.69-5.25l32.37-14.71,31.43,14.23c2.87,1.3,5.36,2.83,7.3,5.26,3.86,4.57,4.19,11.06.45,15.92l-39.03-17.73Z"/><path class="cls-5" d="M183.04,27.78v47.01s-12.1-.05-12.1-.05c-.21-1.69.13-2.89-.29-4.54-6.17,7.63-19.91,7.93-26.63.65-3.27-3.54-4.91-8.13-4.93-13.04l-.1-29.98,12.33-.06.1,28.54c.02,5.16,4.1,8.33,9.02,8.41,5.48.1,10.2-3.48,10.25-9.26l.24-27.68h12.12Z"/><path class="cls-6" d="M123.08,39.54l-.07,35.25-12.14-.06-.08-35.1-6.74-.31v-11.44s6.68-.15,6.68-.15c.16-3.04.35-5.86,1.29-8.7,3.06-9.22,11.93-12.12,20.95-11.25v11.52c-2.26.23-4.53-.03-6.61,1.15-2.57,1.46-3.42,4.38-3.26,7.3l10.03.02-.03,11.59-10.02.18Z"/><path class="cls-3" d="M214.77,64.42c-7.94.26-13.47-5.72-13.43-13.25s5.3-12.95,12.73-13.07,13.22,5.49,13.25,13.06-4.98,13.01-12.56,13.26Z"/></svg>